<?xml version="1.0" standalone="no"?>
<!DOCTYPE svg PUBLIC "-//W3C//DTD SVG 20010904//EN"
 "http://www.w3.org/TR/2001/REC-SVG-20010904/DTD/svg10.dtd">
<svg version="1.0" xmlns="http://www.w3.org/2000/svg"
 width="128.000000pt" height="128.000000pt" viewBox="0 0 128.000000 128.000000"
 preserveAspectRatio="xMidYMid meet">

<g transform="translate(0.000000,128.000000) scale(0.100000,-0.100000)"
fill="#000000" stroke="none">
<path d="M20 620 c0 -423 0 -430 20 -430 17 0 20 7 20 45 l0 45 490 0 490 0 0
105 0 105 108 0 c59 0 113 4 120 8 9 7 12 39 10 128 l-3 119 -212 3 -212 2 -3
118 -3 117 -397 3 -398 2 0 30 c0 20 -5 30 -15 30 -13 0 -15 -54 -15 -430z
m810 235 l0 -105 -390 0 -390 0 0 98 c0 54 3 102 7 105 3 4 179 7 390 7 l383
0 0 -105z m430 -235 l0 -100 -602 2 -603 3 -3 98 -3 97 606 0 605 0 0 -100z
m-240 -220 l0 -90 -480 0 -480 0 0 38 c0 20 -3 61 -6 90 l-7 52 487 0 486 0 0
-90z"/>
</g>
</svg>
