<?xml version="1.0" standalone="no"?>
<!DOCTYPE svg PUBLIC "-//W3C//DTD SVG 20010904//EN"
 "http://www.w3.org/TR/2001/REC-SVG-20010904/DTD/svg10.dtd">
<svg version="1.0" xmlns="http://www.w3.org/2000/svg"
 width="128.000000pt" height="128.000000pt" viewBox="0 0 128.000000 128.000000"
 preserveAspectRatio="xMidYMid meet">

<g transform="translate(0.000000,128.000000) scale(0.100000,-0.100000)"
fill="#000000" stroke="none">
<path d="M256 1235 c-14 -13 -26 -29 -26 -35 0 -6 -23 -10 -55 -10 -31 0 -71
-6 -90 -14 -68 -29 -66 -15 -63 -496 l3 -432 28 -24 28 -24 328 0 329 0 6 -23
c10 -42 82 -113 138 -137 128 -55 285 13 330 143 6 17 20 46 30 62 17 28 18
62 18 450 0 466 2 453 -66 481 -18 8 -58 14 -88 14 -46 0 -56 3 -61 20 -8 24
-54 50 -91 50 -18 0 -38 -12 -60 -35 l-33 -35 -221 0 -221 0 -33 35 c-42 44
-89 48 -130 10z m102 -27 c30 -30 3 -98 -39 -98 -23 0 -59 34 -59 57 0 42 68
71 98 41z m644 -5 c24 -21 23 -48 -2 -73 -24 -24 -53 -26 -74 -4 -19 18 -21
65 -4 82 17 17 58 15 80 -5z m-772 -66 c0 -19 41 -54 71 -62 34 -8 86 18 101
50 l11 25 228 0 228 0 16 -29 c18 -36 70 -56 108 -42 14 6 36 24 48 40 21 28
28 31 79 31 85 0 100 -15 100 -101 l0 -69 -580 0 -580 0 0 69 c0 61 3 72 22
85 29 21 148 23 148 3z m990 -494 l0 -296 -23 44 c-27 51 -91 104 -145 119
-90 25 -172 6 -242 -57 -55 -49 -81 -105 -82 -175 l-1 -49 -320 3 c-302 3
-319 4 -333 22 -11 16 -14 81 -14 353 l0 333 580 0 580 0 0 -297z m-140 -187
c83 -41 130 -159 100 -251 -27 -83 -113 -145 -200 -145 -111 0 -191 66 -215
178 -16 75 37 182 108 219 72 37 131 37 207 -1z"/>
<path d="M125 857 c-4 -13 -5 -43 -3 -68 l3 -44 68 -3 67 -3 0 71 0 70 -65 0
c-59 0 -65 -2 -70 -23z m105 -47 c0 -28 -3 -30 -35 -30 -32 0 -35 2 -35 30 0
28 3 30 35 30 32 0 35 -2 35 -30z"/>
<path d="M346 864 c-3 -9 -6 -33 -6 -54 0 -66 5 -70 76 -70 l64 0 0 70 0 70
-64 0 c-49 0 -65 -4 -70 -16z m104 -54 c0 -28 -3 -30 -35 -30 -32 0 -35 2 -35
30 0 28 3 30 35 30 32 0 35 -2 35 -30z"/>
<path d="M566 864 c-3 -9 -6 -33 -6 -54 0 -66 5 -70 76 -70 l64 0 0 70 0 70
-64 0 c-49 0 -65 -4 -70 -16z m104 -54 c0 -28 -3 -30 -35 -30 -32 0 -35 2 -35
30 0 28 3 30 35 30 32 0 35 -2 35 -30z"/>
<path d="M786 864 c-8 -20 -8 -88 0 -108 5 -12 21 -16 70 -16 l64 0 0 70 0 70
-64 0 c-49 0 -65 -4 -70 -16z m104 -54 c0 -28 -3 -30 -35 -30 -32 0 -35 2 -35
30 0 28 3 30 35 30 32 0 35 -2 35 -30z"/>
<path d="M1010 810 l0 -70 65 0 65 0 0 70 0 70 -65 0 -65 0 0 -70z m100 0 c0
-28 -3 -30 -35 -30 -32 0 -35 2 -35 30 0 28 3 30 35 30 32 0 35 -2 35 -30z"/>
<path d="M671 637 l-53 -52 -15 23 c-16 22 -38 29 -47 14 -7 -11 44 -82 58
-82 15 0 126 112 126 127 0 27 -19 19 -69 -30z"/>
<path d="M125 657 c-4 -13 -5 -43 -3 -68 l3 -44 68 -3 67 -3 0 71 0 70 -65 0
c-59 0 -65 -2 -70 -23z m105 -47 c0 -28 -3 -30 -35 -30 -32 0 -35 2 -35 30 0
28 3 30 35 30 32 0 35 -2 35 -30z"/>
<path d="M346 664 c-3 -9 -6 -33 -6 -54 0 -66 5 -70 76 -70 l64 0 0 70 0 70
-64 0 c-49 0 -65 -4 -70 -16z m104 -54 c0 -28 -3 -30 -35 -30 -32 0 -35 2 -35
30 0 28 3 30 35 30 32 0 35 -2 35 -30z"/>
<path d="M786 665 c-8 -21 -8 -89 0 -109 5 -12 21 -16 71 -16 l64 0 -3 68 -3
67 -61 3 c-49 2 -63 0 -68 -13z m104 -55 c0 -28 -3 -30 -35 -30 -32 0 -35 2
-35 30 0 28 3 30 35 30 32 0 35 -2 35 -30z"/>
<path d="M1010 610 l0 -70 65 0 66 0 -3 68 -3 67 -62 3 -63 3 0 -71z m100 0
c0 -28 -3 -30 -35 -30 -32 0 -35 2 -35 30 0 28 3 30 35 30 32 0 35 -2 35 -30z"/>
<path d="M125 457 c-4 -13 -5 -43 -3 -68 l3 -44 68 -3 68 -3 -3 68 -3 68 -62
3 c-58 3 -63 1 -68 -21z m105 -47 c0 -28 -3 -30 -35 -30 -32 0 -35 2 -35 30 0
28 3 30 35 30 32 0 35 -2 35 -30z"/>
<path d="M345 457 c-4 -13 -5 -43 -3 -68 l3 -44 68 -3 67 -3 0 71 0 70 -65 0
c-59 0 -65 -2 -70 -23z m105 -47 c0 -28 -3 -30 -35 -30 -32 0 -35 2 -35 30 0
28 3 30 35 30 32 0 35 -2 35 -30z"/>
<path d="M566 464 c-3 -9 -6 -33 -6 -54 0 -66 5 -70 76 -70 l64 0 0 70 0 70
-64 0 c-49 0 -65 -4 -70 -16z m104 -54 c0 -28 -3 -30 -35 -30 -32 0 -35 2 -35
30 0 28 3 30 35 30 32 0 35 -2 35 -30z"/>
<path d="M960 380 c0 -36 -6 -59 -21 -80 -21 -28 -21 -30 -5 -54 18 -29 56
-35 76 -11 7 9 35 15 73 17 47 2 62 7 62 18 0 11 -15 16 -59 18 -32 2 -64 9
-72 16 -7 8 -14 38 -16 67 -2 42 -7 55 -20 57 -15 3 -18 -4 -18 -48z m30 -111
c0 -5 -7 -9 -15 -9 -15 0 -20 12 -9 23 8 8 24 -1 24 -14z"/>
</g>
</svg>
