<?xml version="1.0" standalone="no"?>
<!DOCTYPE svg PUBLIC "-//W3C//DTD SVG 20010904//EN"
 "http://www.w3.org/TR/2001/REC-SVG-20010904/DTD/svg10.dtd">
<svg version="1.0" xmlns="http://www.w3.org/2000/svg"
 width="128.000000pt" height="128.000000pt" viewBox="0 0 128.000000 128.000000"
 preserveAspectRatio="xMidYMid meet">

<g transform="translate(0.000000,128.000000) scale(0.100000,-0.100000)"
fill="#000000" stroke="none">
<path d="M126 1058 c-24 -34 -24 -802 0 -836 l15 -22 504 0 504 0 15 22 c14
19 16 76 16 418 0 342 -2 399 -16 418 l-15 22 -504 0 -504 0 -15 -22z m979
-38 c-18 -19 -31 -20 -460 -20 -429 0 -442 1 -460 20 -18 20 -17 20 460 20
477 0 478 0 460 -20z m-937 -32 c9 -9 12 -100 12 -348 0 -331 -3 -360 -32
-360 -4 0 -8 162 -8 360 0 198 4 360 8 360 4 0 13 -5 20 -12z m982 -348 c0
-198 -4 -360 -8 -360 -29 0 -32 29 -32 360 0 331 3 360 32 360 4 0 8 -162 8
-360z m-70 35 c0 -157 -2 -285 -3 -285 -2 0 -71 101 -153 225 -82 123 -153
223 -159 222 -5 -2 -59 -78 -120 -169 -60 -92 -112 -167 -115 -167 -3 -1 -31
40 -62 89 -32 50 -61 90 -66 90 -4 0 -45 -61 -92 -136 -46 -74 -88 -138 -92
-140 -4 -3 -8 121 -8 275 l0 281 435 0 435 0 0 -285z m-160 -120 c82 -123 150
-227 150 -230 0 -3 -98 -5 -218 -5 l-217 0 -43 71 -42 71 105 159 c57 87 107
159 110 159 3 0 72 -101 155 -225z m-416 -90 l86 -140 -181 -3 c-100 -1 -184
0 -187 2 -4 4 23 50 155 260 14 21 28 34 33 30 4 -5 46 -72 94 -149z m601
-205 c18 -20 17 -20 -460 -20 -477 0 -478 0 -460 20 18 19 31 20 460 20 429 0
442 -1 460 -20z"/>
<path d="M349 891 c-23 -23 -29 -38 -29 -71 0 -33 6 -48 29 -71 36 -36 73 -37
106 -5 45 45 45 107 0 152 -33 32 -70 31 -106 -5z m82 -21 c14 -8 19 -21 19
-51 0 -33 -4 -41 -26 -51 -50 -23 -92 37 -60 86 18 28 36 32 67 16z"/>
</g>
</svg>
