<?xml version="1.0" standalone="no"?>
<!DOCTYPE svg PUBLIC "-//W3C//DTD SVG 20010904//EN"
 "http://www.w3.org/TR/2001/REC-SVG-20010904/DTD/svg10.dtd">
<svg version="1.0" xmlns="http://www.w3.org/2000/svg"
 width="128.000000pt" height="128.000000pt" viewBox="0 0 128.000000 128.000000"
 preserveAspectRatio="xMidYMid meet">

<g transform="translate(0.000000,128.000000) scale(0.100000,-0.100000)"
fill="#000000" stroke="none">
<path d="M40 1060 c-19 -19 -20 -33 -20 -420 0 -387 1 -401 20 -420 20 -20 33
-20 600 -20 567 0 580 0 600 20 19 19 20 33 20 420 0 387 -1 401 -20 420 -20
20 -33 20 -600 20 -567 0 -580 0 -600 -20z m1175 -420 l0 -395 -569 -3 c-449
-2 -571 0 -578 10 -9 16 -11 772 -1 781 3 4 263 6 577 5 l571 -3 0 -395z"/>
<path d="M302 770 c-63 -39 -90 -148 -54 -220 28 -56 73 -80 153 -80 37 0 79
4 93 10 25 9 26 13 26 90 l0 80 -70 0 -70 0 0 -30 c0 -27 3 -30 30 -30 28 0
30 -3 30 -36 0 -36 0 -37 -36 -31 -46 8 -71 30 -85 78 -16 53 11 108 63 128
35 13 41 12 88 -11 l50 -25 0 39 c0 48 -21 58 -118 58 -50 0 -76 -5 -100 -20z"/>
<path d="M580 760 c0 -27 3 -30 30 -30 l30 0 0 -100 0 -100 -30 0 c-27 0 -30
-3 -30 -30 l0 -30 95 0 95 0 0 30 c0 27 -3 30 -30 30 l-30 0 0 100 0 100 30 0
c27 0 30 3 30 30 l0 30 -95 0 -95 0 0 -30z"/>
<path d="M840 630 l0 -160 35 0 34 0 3 68 3 67 68 3 c67 3 67 3 67 32 l0 30
-71 0 -70 0 3 28 c3 26 5 27 76 30 l72 3 0 29 0 30 -110 0 -110 0 0 -160z"/>
</g>
</svg>
