<?xml version="1.0" standalone="no"?>
<!DOCTYPE svg PUBLIC "-//W3C//DTD SVG 20010904//EN"
 "http://www.w3.org/TR/2001/REC-SVG-20010904/DTD/svg10.dtd">
<svg version="1.0" xmlns="http://www.w3.org/2000/svg"
 width="128.000000pt" height="128.000000pt" viewBox="0 0 128.000000 128.000000"
 preserveAspectRatio="xMidYMid meet">

<g transform="translate(0.000000,128.000000) scale(0.100000,-0.100000)"
fill="#000000" stroke="none">
<path d="M521 1264 c-233 -63 -388 -293 -354 -526 26 -183 175 -435 386 -653
l87 -90 83 86 c210 217 357 462 389 647 56 330 -266 623 -591 536z m211 -35
c213 -45 367 -255 345 -468 -13 -122 -94 -292 -216 -455 -64 -85 -212 -256
-221 -256 -11 0 -176 194 -235 276 -120 166 -189 317 -202 435 -30 289 241
529 529 468z"/>
<path d="M578 1011 c-86 -28 -144 -99 -155 -190 -15 -133 105 -254 237 -238
113 14 187 91 197 206 10 115 -83 221 -200 227 -29 2 -64 -1 -79 -5z m142 -53
c132 -67 132 -249 0 -315 -24 -13 -60 -23 -80 -23 -20 0 -56 10 -80 23 -132
66 -132 248 0 315 24 12 60 22 80 22 20 0 56 -10 80 -22z"/>
</g>
</svg>
