<?xml version="1.0" standalone="no"?>
<!DOCTYPE svg PUBLIC "-//W3C//DTD SVG 20010904//EN"
 "http://www.w3.org/TR/2001/REC-SVG-20010904/DTD/svg10.dtd">
<svg version="1.0" xmlns="http://www.w3.org/2000/svg"
 width="128.000000pt" height="128.000000pt" viewBox="0 0 128.000000 128.000000"
 preserveAspectRatio="xMidYMid meet">

<g transform="translate(0.000000,128.000000) scale(0.100000,-0.100000)"
fill="#000000" stroke="none">
<path d="M390 1264 c-191 -50 -326 -187 -375 -379 -28 -111 -12 -231 45 -345
36 -71 125 -164 196 -204 174 -99 403 -84 555 35 l35 28 200 -200 c109 -109
205 -199 212 -199 7 0 15 7 19 16 4 11 -50 72 -191 213 -108 108 -196 200
-196 205 0 5 11 23 24 40 115 151 127 379 30 550 -107 189 -350 294 -554 240z
m240 -56 c329 -97 436 -511 195 -753 -219 -219 -584 -157 -721 121 -87 176
-54 376 85 515 117 116 288 162 441 117z"/>
</g>
</svg>
