<?xml version="1.0" standalone="no"?>
<!DOCTYPE svg PUBLIC "-//W3C//DTD SVG 20010904//EN"
 "http://www.w3.org/TR/2001/REC-SVG-20010904/DTD/svg10.dtd">
<svg version="1.0" xmlns="http://www.w3.org/2000/svg"
 width="128.000000pt" height="128.000000pt" viewBox="0 0 128.000000 128.000000"
 preserveAspectRatio="xMidYMid meet">

<g transform="translate(0.000000,128.000000) scale(0.100000,-0.100000)"
fill="#000000" stroke="none">
<path d="M501 1265 c-178 -39 -348 -172 -429 -336 -127 -256 -81 -540 118
-739 251 -252 649 -252 900 0 252 251 252 649 0 900 -155 156 -375 221 -589
175z m284 -60 c204 -53 367 -216 420 -420 19 -76 19 -214 0 -290 -53 -204
-216 -367 -420 -420 -76 -19 -214 -19 -290 0 -204 53 -367 216 -420 420 -19
76 -19 214 0 290 53 202 215 365 416 419 72 20 220 20 294 1z"/>
<path d="M343 810 c-38 -23 -65 -71 -61 -108 5 -43 36 -35 61 17 40 82 121 79
153 -5 11 -29 23 -44 34 -44 44 0 27 83 -26 129 -28 25 -43 31 -82 31 -29 0
-59 -8 -79 -20z"/>
<path d="M776 799 c-53 -46 -70 -129 -26 -129 11 0 23 15 34 44 32 84 113 87
153 5 25 -52 56 -60 61 -17 8 67 -59 128 -140 128 -39 0 -54 -6 -82 -31z"/>
<path d="M366 485 c-8 -23 45 -77 107 -109 103 -51 231 -51 334 0 62 32 115
86 107 109 -9 23 -30 18 -68 -15 -115 -102 -297 -102 -412 0 -38 33 -59 38
-68 15z"/>
</g>
</svg>
